<?xml version="1.0" encoding="utf-8"?>
<!-- Generator: Adobe Illustrator 19.0.1, SVG Export Plug-In . SVG Version: 6.00 Build 0)  -->
<svg version="1.1" id="Layer_2" xmlns="http://www.w3.org/2000/svg" xmlns:xlink="http://www.w3.org/1999/xlink" x="0px" y="0px"
	 viewBox="0 0 612 792" style="enable-background:new 0 0 612 792;" xml:space="preserve">
<style type="text/css">
	.st0{fill:#ED2226;stroke:#020202;stroke-width:6;stroke-miterlimit:10;}
	.st1{fill:#FFFFFF;stroke:#020202;stroke-width:6;stroke-miterlimit:10;}
</style>
<g>
	<path class="st0" d="M547.5,330H355c-6.6,0-12-5.4-12-12V195.2c0-6.6,5.4-12,12-12h192.5c6.6,0,12,5.4,12,12V318
		C559.5,324.6,554.1,330,547.5,330z"/>
	<polygon class="st1" points="351.5,187.3 373.4,214.9 392.4,201.1 420.2,214.9 450.6,194.9 477.2,214.9 502.5,201.1 532.9,214.9 
		550,187.3 	"/>
	<polygon class="st1" points="351,325.6 372.9,298 391.9,311.8 419.7,298 450.1,318 476.7,298 502,311.8 532.4,298 549.5,325.6 	"/>
</g>
</svg>
